{"title":"Eagles - Hotel California (live)","uid":5249336,"size":76945316,"categoryP":"video","categoryS":"music_videos","magnet":"?xt=urn:btih:89ad851b4ff0b289aa4fd4c8a2e26b196c92897e&amp;dn=Eagles+-+Hotel+California+%28live%29&amp;tr=udp%3A%2F%2Ftracker.openbittorrent.com%3A80&amp;tr=udp%3A%2F%2Fopen.demonii.com%3A1337&amp;tr=udp%3A%2F%2Ftracker.coppersurfer.tk%3A6969&amp;tr=udp%3A%2F%2Fexodus.desync.com%3A6969","seeders":0,"leechers":1,"uploader":"svile","files":1,"time":1262268195,"description":"Date: April 25-26, 1994\n\n\nFormat                           : MPEG-PS\nFile size                        : 73.4 MiB\nDuration                         : 7mn 21s\nOverall bit rate                 : 1 395 Kbps\n\nVideo\nID                               : 224 (0xE0)\nFormat                           : MPEG Video\nFormat version                   : Version 1\nFormat settings, Matrix          : Default\nDuration                         : 7mn 21s\nBit rate mode                    : Constant\nBit rate                         : 1 115 Kbps\nNominal bit rate                 : 1 152 Kbps\nWidth                            : 352 pixels\nHeight                           : 240 pixels\nDisplay aspect ratio             : 4:3\nFrame rate                       : 29.970 fps\nScan type                        : Progressive\nBits/(Pixel*Frame)               : 0.441\nStream size                      : 58.7 MiB (80%)\n\nAudio\nID                               : 192 (0xC0)\nFormat                           : MPEG Audio\nFormat version                   : Version 1\nFormat profile                   : Layer 2\nDuration                         : 7mn 21s\nBit rate mode                    : Constant\nBit rate                         : 224 Kbps\nChannel(s)                       : 2 channels\nSampling rate                    : 44.1 KHz\nResolution                       : 16 bits\nStream size                      : 11.8 MiB (16%)\n\n","torrent":{"xt":"urn:btih:89ad851b4ff0b289aa4fd4c8a2e26b196c92897e","amp;dn":"Eagles+-+Hotel+California+%28live%29","amp;tr":["udp%3A%2F%2Ftracker.openbittorrent.com%3A80","udp%3A%2F%2Fopen.demonii.com%3A1337","udp%3A%2F%2Ftracker.coppersurfer.tk%3A6969","udp%3A%2F%2Fexodus.desync.com%3A6969"],"infoHash":"89ad851b4ff0b289aa4fd4c8a2e26b196c92897e","infoHashBuffer":{"type":"Buffer","data":[137,173,133,27,79,240,178,137,170,79,212,200,162,226,107,25,108,146,137,126]},"announce":[],"urlList":[]}}